<svg xmlns="http://www.w3.org/2000/svg" xmlns:xlink="http://www.w3.org/1999/xlink" width="250" zoomAndPan="magnify" viewBox="0 0 187.5 187.499992" height="250" preserveAspectRatio="xMidYMid meet" version="1.0"><defs><filter x="0%" y="0%" width="100%" height="100%" id="b92975611f"><feColorMatrix values="0 0 0 0 1 0 0 0 0 1 0 0 0 0 1 0 0 0 1 0" color-interpolation-filters="sRGB"/></filter><g/><clipPath id="17571a147d"><path d="M 29.140625 81 L 55 81 L 55 106.496094 L 29.140625 106.496094 Z M 29.140625 81 " clip-rule="nonzero"/></clipPath><mask id="5ba7ae79f2"><g filter="url(#b92975611f)"><rect x="-18.75" width="225" fill="#000000" y="-18.749999" height="224.99999" fill-opacity="0.7"/></g></mask><clipPath id="dd17dcd611"><path d="M 0.140625 0.144531 L 25.574219 0.144531 L 25.574219 25.496094 L 0.140625 25.496094 Z M 0.140625 0.144531 " clip-rule="nonzero"/></clipPath><clipPath id="c79ec160ba"><rect x="0" width="26" y="0" height="26"/></clipPath><clipPath id="85cb412809"><path d="M 36 80.316406 L 61.304688 80.316406 L 61.304688 106.496094 L 36 106.496094 Z M 36 80.316406 " clip-rule="nonzero"/></clipPath><mask id="5b6f09c2af"><g filter="url(#b92975611f)"><rect x="-18.75" width="225" fill="#000000" y="-18.749999" height="224.99999" fill-opacity="0.7"/></g></mask><clipPath id="1edd5c23dd"><path d="M 0.144531 1 L 25.304688 1 L 25.304688 26.496094 L 0.144531 26.496094 Z M 0.144531 1 " clip-rule="nonzero"/></clipPath><clipPath id="c2797803bc"><rect x="0" width="26" y="0" height="27"/></clipPath></defs><g clip-path="url(#17571a147d)"><g mask="url(#5ba7ae79f2)"><g transform="matrix(1, 0, 0, 1, 29, 81)"><g clip-path="url(#c79ec160ba)"><g clip-path="url(#dd17dcd611)"><path fill="#085fce" d="M 25.335938 16.3125 C 25.335938 18.738281 24.394531 21.015625 22.679688 22.730469 C 20.910156 24.5 18.585938 25.386719 16.261719 25.386719 C 13.9375 25.386719 11.613281 24.5 9.84375 22.730469 L 2.800781 15.6875 C 1.085938 13.972656 0.140625 11.695312 0.140625 9.269531 C 0.140625 6.847656 1.085938 4.566406 2.800781 2.851562 C 6.339844 -0.683594 12.097656 -0.683594 15.632812 2.851562 L 22.679688 9.898438 C 24.394531 11.609375 25.335938 13.890625 25.335938 16.3125 Z M 25.335938 16.3125 " fill-opacity="1" fill-rule="nonzero"/></g></g></g></g></g><g clip-path="url(#85cb412809)"><g mask="url(#5b6f09c2af)"><g transform="matrix(1, 0, 0, 1, 36, 80)"><g clip-path="url(#c2797803bc)"><g clip-path="url(#1edd5c23dd)"><path fill="#3de2ff" d="M 25.429688 10.269531 C 25.429688 12.695312 24.484375 14.972656 22.773438 16.6875 L 15.726562 23.730469 C 13.957031 25.5 11.632812 26.386719 9.3125 26.386719 C 6.988281 26.386719 4.664062 25.5 2.894531 23.730469 C 1.179688 22.015625 0.234375 19.738281 0.234375 17.3125 C 0.234375 14.890625 1.179688 12.609375 2.894531 10.898438 L 9.9375 3.851562 C 13.476562 0.316406 19.234375 0.316406 22.773438 3.851562 C 24.484375 5.566406 25.429688 7.847656 25.429688 10.269531 Z M 25.429688 10.269531 " fill-opacity="1" fill-rule="nonzero"/></g></g></g></g></g><g fill="#000000" fill-opacity="1"><g transform="translate(66.577666, 102.289719)"><g><path d="M 5.640625 0 L 1.421875 0 L 1.421875 -17.984375 L 5.640625 -17.984375 Z M 5.640625 0 "/></g></g></g><g fill="#000000" fill-opacity="1"><g transform="translate(73.178251, 102.289719)"><g><path d="M 5.640625 0 L 1.421875 0 L 1.421875 -17.984375 L 5.640625 -17.984375 L 5.640625 -10.875 L 12.46875 -10.875 L 12.46875 -17.984375 L 16.6875 -17.984375 L 16.6875 0 L 12.46875 0 L 12.46875 -7.09375 L 5.640625 -7.09375 Z M 5.640625 0 "/></g></g></g><g fill="#000000" fill-opacity="1"><g transform="translate(90.858538, 102.289719)"><g><path d="M 7.734375 0.28125 C 6.316406 0.28125 5.082031 -0.015625 4.03125 -0.609375 C 2.988281 -1.210938 2.179688 -2.023438 1.609375 -3.046875 C 1.035156 -4.078125 0.75 -5.253906 0.75 -6.578125 C 0.75 -7.421875 0.878906 -8.257812 1.140625 -9.09375 C 1.398438 -9.925781 1.804688 -10.6875 2.359375 -11.375 C 2.921875 -12.070312 3.632812 -12.625 4.5 -13.03125 C 5.363281 -13.445312 6.398438 -13.65625 7.609375 -13.65625 C 8.492188 -13.65625 9.347656 -13.523438 10.171875 -13.265625 C 10.992188 -13.003906 11.734375 -12.585938 12.390625 -12.015625 C 13.046875 -11.453125 13.566406 -10.71875 13.953125 -9.8125 C 14.335938 -8.914062 14.53125 -7.820312 14.53125 -6.53125 L 14.53125 -5.84375 L 4.90625 -5.84375 C 5.007812 -5.125 5.238281 -4.550781 5.59375 -4.125 C 5.875 -3.78125 6.210938 -3.523438 6.609375 -3.359375 C 7.015625 -3.191406 7.460938 -3.109375 7.953125 -3.109375 C 8.546875 -3.109375 9.050781 -3.257812 9.46875 -3.5625 C 9.882812 -3.863281 10.171875 -4.21875 10.328125 -4.625 L 14.3125 -4.625 C 14.0625 -3.738281 13.660156 -2.921875 13.109375 -2.171875 C 12.554688 -1.429688 11.835938 -0.835938 10.953125 -0.390625 C 10.066406 0.0546875 8.992188 0.28125 7.734375 0.28125 Z M 5.015625 -8.65625 L 10.515625 -8.65625 C 10.484375 -8.8125 10.421875 -9 10.328125 -9.21875 C 10.242188 -9.4375 10.09375 -9.648438 9.875 -9.859375 C 9.59375 -10.140625 9.269531 -10.335938 8.90625 -10.453125 C 8.550781 -10.578125 8.164062 -10.640625 7.75 -10.640625 C 7.363281 -10.640625 6.984375 -10.578125 6.609375 -10.453125 C 6.242188 -10.335938 5.921875 -10.140625 5.640625 -9.859375 C 5.421875 -9.640625 5.269531 -9.421875 5.1875 -9.203125 C 5.101562 -8.992188 5.046875 -8.8125 5.015625 -8.65625 Z M 5.015625 -8.65625 "/></g></g></g><g fill="#000000" fill-opacity="1"><g transform="translate(105.662818, 102.289719)"><g><path d="M 5.15625 0.28125 C 4.363281 0.28125 3.632812 0.132812 2.96875 -0.15625 C 2.3125 -0.457031 1.78125 -0.90625 1.375 -1.5 C 0.976562 -2.101562 0.78125 -2.851562 0.78125 -3.75 C 0.78125 -4.550781 0.9375 -5.207031 1.25 -5.71875 C 1.5625 -6.238281 1.960938 -6.660156 2.453125 -6.984375 C 2.921875 -7.296875 3.4375 -7.523438 4 -7.671875 C 4.570312 -7.828125 5.109375 -7.953125 5.609375 -8.046875 L 9.078125 -8.65625 C 9.023438 -9.332031 8.84375 -9.847656 8.53125 -10.203125 C 8.238281 -10.523438 7.789062 -10.6875 7.1875 -10.6875 C 6.726562 -10.6875 6.304688 -10.53125 5.921875 -10.21875 C 5.546875 -9.914062 5.304688 -9.476562 5.203125 -8.90625 L 1.265625 -8.90625 C 1.441406 -10.03125 1.828125 -10.941406 2.421875 -11.640625 C 3.023438 -12.335938 3.75 -12.847656 4.59375 -13.171875 C 5.445312 -13.492188 6.320312 -13.65625 7.21875 -13.65625 C 8 -13.65625 8.75 -13.546875 9.46875 -13.328125 C 10.195312 -13.117188 10.828125 -12.785156 11.359375 -12.328125 C 11.910156 -11.859375 12.300781 -11.316406 12.53125 -10.703125 C 12.757812 -10.085938 12.894531 -9.414062 12.9375 -8.6875 C 12.988281 -7.957031 13.015625 -7.175781 13.015625 -6.34375 L 13.015625 0 L 9.046875 0 L 9.046875 -1.625 C 8.828125 -1.101562 8.515625 -0.703125 8.109375 -0.421875 C 7.710938 -0.160156 7.257812 0.0195312 6.75 0.125 C 6.238281 0.226562 5.707031 0.28125 5.15625 0.28125 Z M 6.3125 -2.71875 C 6.789062 -2.71875 7.269531 -2.828125 7.75 -3.046875 C 8.300781 -3.296875 8.664062 -3.644531 8.84375 -4.09375 C 9.03125 -4.539062 9.128906 -5.125 9.140625 -5.84375 L 6.71875 -5.375 C 6.28125 -5.300781 5.941406 -5.210938 5.703125 -5.109375 C 5.472656 -5.015625 5.269531 -4.890625 5.09375 -4.734375 C 4.976562 -4.628906 4.890625 -4.507812 4.828125 -4.375 C 4.765625 -4.238281 4.734375 -4.078125 4.734375 -3.890625 C 4.734375 -3.460938 4.890625 -3.160156 5.203125 -2.984375 C 5.523438 -2.804688 5.894531 -2.71875 6.3125 -2.71875 Z M 6.3125 -2.71875 "/></g></g></g><g fill="#000000" fill-opacity="1"><g transform="translate(119.359124, 102.289719)"><g><path d="M 6.953125 0 L 4.296875 0 C 3.316406 0 2.554688 -0.226562 2.015625 -0.6875 C 1.484375 -1.15625 1.21875 -1.816406 1.21875 -2.671875 L 1.21875 -17.984375 L 5.1875 -17.984375 L 5.1875 -4.03125 C 5.1875 -3.664062 5.273438 -3.4375 5.453125 -3.34375 C 5.640625 -3.25 5.8125 -3.203125 5.96875 -3.203125 L 6.953125 -3.203125 Z M 6.953125 0 "/></g></g></g><g fill="#000000" fill-opacity="1"><g transform="translate(126.384034, 102.289719)"><g><path d="M 8.578125 0 L 5.421875 0 C 4.453125 0 3.691406 -0.226562 3.140625 -0.6875 C 2.597656 -1.15625 2.328125 -1.816406 2.328125 -2.671875 L 2.328125 -10.28125 L 0.5 -10.28125 L 0.5 -13.375 L 2.328125 -13.375 L 2.328125 -17.984375 L 6.296875 -17.984375 L 6.296875 -13.375 L 8.609375 -13.375 L 8.609375 -10.28125 L 6.296875 -10.28125 L 6.296875 -4.015625 C 6.296875 -3.816406 6.34375 -3.628906 6.4375 -3.453125 C 6.53125 -3.285156 6.75 -3.203125 7.09375 -3.203125 L 8.578125 -3.203125 Z M 8.578125 0 "/></g></g></g><g fill="#000000" fill-opacity="1"><g transform="translate(135.294851, 102.289719)"><g><path d="M 5.265625 0 L 1.296875 0 L 1.296875 -17.984375 L 5.265625 -17.984375 L 5.265625 -11.9375 C 5.710938 -12.601562 6.210938 -13.054688 6.765625 -13.296875 C 7.328125 -13.535156 7.960938 -13.65625 8.671875 -13.65625 C 9.554688 -13.65625 10.285156 -13.546875 10.859375 -13.328125 C 11.429688 -13.117188 11.882812 -12.835938 12.21875 -12.484375 C 12.5625 -12.128906 12.816406 -11.75 12.984375 -11.34375 C 13.253906 -10.757812 13.410156 -10.175781 13.453125 -9.59375 C 13.492188 -9.007812 13.515625 -8.300781 13.515625 -7.46875 L 13.515625 0 L 9.546875 0 L 9.546875 -7.515625 C 9.546875 -8.179688 9.503906 -8.707031 9.421875 -9.09375 C 9.335938 -9.476562 9.191406 -9.769531 8.984375 -9.96875 C 8.671875 -10.300781 8.179688 -10.46875 7.515625 -10.46875 C 7.109375 -10.46875 6.753906 -10.414062 6.453125 -10.3125 C 6.160156 -10.207031 5.925781 -10.03125 5.75 -9.78125 C 5.59375 -9.5625 5.472656 -9.273438 5.390625 -8.921875 C 5.304688 -8.566406 5.265625 -8.097656 5.265625 -7.515625 Z M 5.265625 0 "/></g></g></g></svg>