<svg xmlns="http://www.w3.org/2000/svg" xmlns:xlink="http://www.w3.org/1999/xlink" width="250" zoomAndPan="magnify" viewBox="0 0 187.5 74.999997" height="100" preserveAspectRatio="xMidYMid meet" version="1.0"><defs><filter x="0%" y="0%" width="100%" height="100%" id="85d09da533"><feColorMatrix values="0 0 0 0 1 0 0 0 0 1 0 0 0 0 1 0 0 0 1 0" color-interpolation-filters="sRGB"/></filter><g/><clipPath id="1b1da8fc81"><path d="M 3.738281 20 L 40 20 L 40 55.621094 L 3.738281 55.621094 Z M 3.738281 20 " clip-rule="nonzero"/></clipPath><mask id="f2055379df"><g filter="url(#85d09da533)"><rect x="-18.75" width="225" fill="#000000" y="-7.5" height="89.999996" fill-opacity="0.7"/></g></mask><clipPath id="7cb5a3adf5"><path d="M 0.738281 0.207031 L 36 0.207031 L 36 35.621094 L 0.738281 35.621094 Z M 0.738281 0.207031 " clip-rule="nonzero"/></clipPath><clipPath id="a2d16cc1d4"><rect x="0" width="37" y="0" height="36"/></clipPath><clipPath id="d71305ed22"><path d="M 13 20 L 48.597656 20 L 48.597656 55.621094 L 13 55.621094 Z M 13 20 " clip-rule="nonzero"/></clipPath><mask id="7dc4d74005"><g filter="url(#85d09da533)"><rect x="-18.75" width="225" fill="#000000" y="-7.5" height="89.999996" fill-opacity="0.7"/></g></mask><clipPath id="ec1f2ab993"><path d="M 0.402344 0.207031 L 35.597656 0.207031 L 35.597656 35.621094 L 0.402344 35.621094 Z M 0.402344 0.207031 " clip-rule="nonzero"/></clipPath><clipPath id="e79cb3600a"><rect x="0" width="36" y="0" height="36"/></clipPath></defs><g clip-path="url(#1b1da8fc81)"><g mask="url(#f2055379df)"><g transform="matrix(1, 0, 0, 1, 3, 20)"><g clip-path="url(#a2d16cc1d4)"><g clip-path="url(#7cb5a3adf5)"><path fill="#085fce" d="M 35.878906 22.820312 C 35.878906 26.199219 34.5625 29.378906 32.171875 31.769531 C 29.707031 34.234375 26.464844 35.46875 23.222656 35.46875 C 19.984375 35.46875 16.742188 34.234375 14.273438 31.769531 L 4.449219 21.945312 C 2.058594 19.554688 0.742188 16.375 0.742188 12.996094 C 0.742188 9.613281 2.058594 6.4375 4.449219 4.046875 C 9.386719 -0.890625 17.414062 -0.890625 22.351562 4.046875 L 32.175781 13.867188 C 34.5625 16.257812 35.878906 19.4375 35.878906 22.820312 Z M 35.878906 22.820312 " fill-opacity="1" fill-rule="nonzero"/></g></g></g></g></g><g clip-path="url(#d71305ed22)"><g mask="url(#7dc4d74005)"><g transform="matrix(1, 0, 0, 1, 13, 20)"><g clip-path="url(#e79cb3600a)"><g clip-path="url(#ec1f2ab993)"><path fill="#3de2ff" d="M 35.773438 12.996094 C 35.773438 16.375 34.457031 19.554688 32.066406 21.945312 L 22.242188 31.769531 C 19.773438 34.234375 16.535156 35.46875 13.292969 35.46875 C 10.050781 35.46875 6.8125 34.234375 4.34375 31.769531 C 1.953125 29.378906 0.636719 26.199219 0.636719 22.820312 C 0.636719 19.4375 1.953125 16.257812 4.34375 13.867188 L 14.167969 4.046875 C 19.101562 -0.890625 27.132812 -0.890625 32.066406 4.046875 C 34.457031 6.433594 35.773438 9.613281 35.773438 12.996094 Z M 35.773438 12.996094 " fill-opacity="1" fill-rule="nonzero"/></g></g></g></g></g><g fill="#000000" fill-opacity="1"><g transform="translate(55.952677, 49.757607)"><g><path d="M 7.859375 0 L 1.96875 0 L 1.96875 -25.078125 L 7.859375 -25.078125 Z M 7.859375 0 "/></g></g></g><g fill="#000000" fill-opacity="1"><g transform="translate(65.158142, 49.757607)"><g><path d="M 7.859375 0 L 1.96875 0 L 1.96875 -25.078125 L 7.859375 -25.078125 L 7.859375 -15.15625 L 17.390625 -15.15625 L 17.390625 -25.078125 L 23.28125 -25.078125 L 23.28125 0 L 17.390625 0 L 17.390625 -9.890625 L 7.859375 -9.890625 Z M 7.859375 0 "/></g></g></g><g fill="#000000" fill-opacity="1"><g transform="translate(89.815844, 49.757607)"><g><path d="M 10.78125 0.390625 C 8.8125 0.390625 7.097656 -0.0234375 5.640625 -0.859375 C 4.179688 -1.691406 3.050781 -2.820312 2.25 -4.25 C 1.445312 -5.6875 1.046875 -7.328125 1.046875 -9.171875 C 1.046875 -10.359375 1.226562 -11.53125 1.59375 -12.6875 C 1.957031 -13.851562 2.523438 -14.914062 3.296875 -15.875 C 4.078125 -16.84375 5.070312 -17.609375 6.28125 -18.171875 C 7.488281 -18.742188 8.9375 -19.03125 10.625 -19.03125 C 11.84375 -19.03125 13.023438 -18.847656 14.171875 -18.484375 C 15.328125 -18.128906 16.359375 -17.554688 17.265625 -16.765625 C 18.179688 -15.972656 18.90625 -14.945312 19.4375 -13.6875 C 19.976562 -12.425781 20.25 -10.898438 20.25 -9.109375 L 20.25 -8.15625 L 6.84375 -8.15625 C 6.988281 -7.144531 7.304688 -6.34375 7.796875 -5.75 C 8.191406 -5.269531 8.664062 -4.914062 9.21875 -4.6875 C 9.78125 -4.457031 10.398438 -4.34375 11.078125 -4.34375 C 11.910156 -4.34375 12.617188 -4.550781 13.203125 -4.96875 C 13.785156 -5.382812 14.1875 -5.875 14.40625 -6.4375 L 19.953125 -6.4375 C 19.597656 -5.21875 19.035156 -4.085938 18.265625 -3.046875 C 17.503906 -2.003906 16.503906 -1.171875 15.265625 -0.546875 C 14.023438 0.078125 12.53125 0.390625 10.78125 0.390625 Z M 7 -12.0625 L 14.65625 -12.0625 C 14.613281 -12.28125 14.53125 -12.539062 14.40625 -12.84375 C 14.289062 -13.15625 14.082031 -13.453125 13.78125 -13.734375 C 13.382812 -14.128906 12.929688 -14.410156 12.421875 -14.578125 C 11.921875 -14.742188 11.382812 -14.828125 10.8125 -14.828125 C 10.269531 -14.828125 9.738281 -14.742188 9.21875 -14.578125 C 8.707031 -14.410156 8.253906 -14.128906 7.859375 -13.734375 C 7.546875 -13.429688 7.332031 -13.128906 7.21875 -12.828125 C 7.113281 -12.535156 7.039062 -12.28125 7 -12.0625 Z M 7 -12.0625 "/></g></g></g><g fill="#000000" fill-opacity="1"><g transform="translate(110.462541, 49.757607)"><g><path d="M 7.203125 0.390625 C 6.078125 0.390625 5.054688 0.179688 4.140625 -0.234375 C 3.222656 -0.648438 2.484375 -1.273438 1.921875 -2.109375 C 1.359375 -2.941406 1.078125 -3.984375 1.078125 -5.234375 C 1.078125 -6.347656 1.296875 -7.265625 1.734375 -7.984375 C 2.179688 -8.710938 2.742188 -9.296875 3.421875 -9.734375 C 4.078125 -10.171875 4.796875 -10.492188 5.578125 -10.703125 C 6.367188 -10.910156 7.117188 -11.078125 7.828125 -11.203125 L 12.65625 -12.0625 C 12.59375 -13.007812 12.34375 -13.734375 11.90625 -14.234375 C 11.488281 -14.671875 10.863281 -14.890625 10.03125 -14.890625 C 9.394531 -14.890625 8.804688 -14.675781 8.265625 -14.25 C 7.734375 -13.820312 7.398438 -13.210938 7.265625 -12.421875 L 1.78125 -12.421875 C 2.019531 -13.984375 2.554688 -15.25 3.390625 -16.21875 C 4.222656 -17.195312 5.226562 -17.910156 6.40625 -18.359375 C 7.59375 -18.804688 8.8125 -19.03125 10.0625 -19.03125 C 11.15625 -19.03125 12.207031 -18.878906 13.21875 -18.578125 C 14.226562 -18.285156 15.101562 -17.820312 15.84375 -17.1875 C 16.613281 -16.53125 17.15625 -15.773438 17.46875 -14.921875 C 17.789062 -14.066406 17.984375 -13.128906 18.046875 -12.109375 C 18.109375 -11.085938 18.140625 -10 18.140625 -8.84375 L 18.140625 0 L 12.625 0 L 12.625 -2.265625 C 12.3125 -1.546875 11.875 -0.988281 11.3125 -0.59375 C 10.757812 -0.21875 10.125 0.0351562 9.40625 0.171875 C 8.695312 0.316406 7.960938 0.390625 7.203125 0.390625 Z M 8.8125 -3.78125 C 9.46875 -3.78125 10.132812 -3.929688 10.8125 -4.234375 C 11.582031 -4.585938 12.09375 -5.078125 12.34375 -5.703125 C 12.59375 -6.328125 12.726562 -7.144531 12.75 -8.15625 L 9.375 -7.5 C 8.757812 -7.382812 8.285156 -7.257812 7.953125 -7.125 C 7.628906 -7 7.34375 -6.828125 7.09375 -6.609375 C 6.945312 -6.453125 6.828125 -6.28125 6.734375 -6.09375 C 6.648438 -5.90625 6.609375 -5.679688 6.609375 -5.421875 C 6.609375 -4.828125 6.828125 -4.40625 7.265625 -4.15625 C 7.703125 -3.90625 8.21875 -3.78125 8.8125 -3.78125 Z M 8.8125 -3.78125 "/></g></g></g><g fill="#000000" fill-opacity="1"><g transform="translate(129.564008, 49.757607)"><g><path d="M 9.703125 0 L 5.984375 0 C 4.617188 0 3.5625 -0.320312 2.8125 -0.96875 C 2.070312 -1.613281 1.703125 -2.53125 1.703125 -3.71875 L 1.703125 -25.078125 L 7.234375 -25.078125 L 7.234375 -5.625 C 7.234375 -5.113281 7.359375 -4.789062 7.609375 -4.65625 C 7.859375 -4.53125 8.09375 -4.46875 8.3125 -4.46875 L 9.703125 -4.46875 Z M 9.703125 0 "/></g></g></g><g fill="#000000" fill-opacity="1"><g transform="translate(139.361256, 49.757607)"><g><path d="M 11.96875 0 L 7.5625 0 C 6.195312 0 5.132812 -0.320312 4.375 -0.96875 C 3.625 -1.613281 3.25 -2.53125 3.25 -3.71875 L 3.25 -14.328125 L 0.6875 -14.328125 L 0.6875 -18.640625 L 3.25 -18.640625 L 3.25 -25.078125 L 8.78125 -25.078125 L 8.78125 -18.640625 L 12 -18.640625 L 12 -14.328125 L 8.78125 -14.328125 L 8.78125 -5.59375 C 8.78125 -5.320312 8.84375 -5.066406 8.96875 -4.828125 C 9.101562 -4.585938 9.410156 -4.46875 9.890625 -4.46875 L 11.96875 -4.46875 Z M 11.96875 0 "/></g></g></g><g fill="#000000" fill-opacity="1"><g transform="translate(151.788671, 49.757607)"><g><path d="M 7.328125 0 L 1.8125 0 L 1.8125 -25.078125 L 7.328125 -25.078125 L 7.328125 -16.640625 C 7.960938 -17.578125 8.671875 -18.207031 9.453125 -18.53125 C 10.234375 -18.863281 11.113281 -19.03125 12.09375 -19.03125 C 13.320312 -19.03125 14.335938 -18.878906 15.140625 -18.578125 C 15.941406 -18.285156 16.578125 -17.894531 17.046875 -17.40625 C 17.515625 -16.914062 17.867188 -16.382812 18.109375 -15.8125 C 18.484375 -15 18.695312 -14.1875 18.75 -13.375 C 18.8125 -12.5625 18.84375 -11.578125 18.84375 -10.421875 L 18.84375 0 L 13.3125 0 L 13.3125 -10.484375 C 13.3125 -11.410156 13.25 -12.140625 13.125 -12.671875 C 13.007812 -13.210938 12.8125 -13.625 12.53125 -13.90625 C 12.09375 -14.363281 11.410156 -14.59375 10.484375 -14.59375 C 9.910156 -14.59375 9.414062 -14.519531 9 -14.375 C 8.59375 -14.238281 8.265625 -13.992188 8.015625 -13.640625 C 7.796875 -13.335938 7.625 -12.9375 7.5 -12.4375 C 7.382812 -11.945312 7.328125 -11.296875 7.328125 -10.484375 Z M 7.328125 0 "/></g></g></g></svg>