<svg width="23" height="23" viewBox="0 0 23 23" fill="none" xmlns="http://www.w3.org/2000/svg">
<g id="fi-br-mars" clip-path="url(#clip0_168_625)">
<path id="Vector" d="M19.6518 0H15.8249C15.0323 0 14.3898 0.642518 14.3898 1.43507C14.3898 2.22763 15.0323 2.87015 15.8249 2.87015H18.1009L12.8113 8.15979C9.1174 5.58662 4.03696 6.49512 1.46379 10.189C-1.10938 13.8828 -0.200884 18.9633 3.49295 21.5364C7.18679 24.1096 12.2673 23.2011 14.8404 19.5073C16.7909 16.7074 16.7909 12.9889 14.8404 10.189L20.1301 4.89931V7.17533C20.1301 7.96788 20.7726 8.6104 21.5652 8.6104C22.3577 8.6104 23.0002 7.96788 23.0002 7.17533V3.34848C23.0002 1.49918 21.5011 0 19.6518 0ZM8.17121 20.0909C5.26512 20.0909 2.90928 17.7351 2.90928 14.829C2.90928 11.9229 5.26512 9.56706 8.17121 9.56706C11.0773 9.56706 13.4331 11.9229 13.4331 14.829C13.43 17.7338 11.076 20.0878 8.17121 20.0909Z" fill="white"/>
</g>
<defs>
<clipPath id="clip0_168_625">
<rect width="23" height="23" fill="white"/>
</clipPath>
</defs>
</svg>
