<svg width="25" height="25" viewBox="0 0 25 25" fill="none" xmlns="http://www.w3.org/2000/svg">
<g id="fi-br-venus" clip-path="url(#clip0_168_619)">
<path id="Vector" d="M20.8332 8.33329C20.834 6.75181 20.3848 5.20274 19.538 3.86706C18.6912 2.53137 17.4818 1.46422 16.0511 0.790257C14.6204 0.116298 13.0275 -0.136637 11.4584 0.0609995C9.88934 0.258636 8.40889 0.898684 7.19001 1.90637C5.97114 2.91406 5.06417 4.24778 4.57506 5.75174C4.08595 7.25569 4.03489 8.86777 4.42786 10.3997C4.82082 11.9315 5.64158 13.32 6.79424 14.4028C7.94691 15.4856 9.3839 16.218 10.9373 16.5145V18.75H9.37484C8.96044 18.75 8.56301 18.9146 8.26998 19.2076C7.97696 19.5006 7.81234 19.8981 7.81234 20.3125C7.81234 20.7269 7.97696 21.1243 8.26998 21.4173C8.56301 21.7103 8.96044 21.875 9.37484 21.875H10.9373V23.4375C10.9373 23.8519 11.102 24.2493 11.395 24.5423C11.688 24.8353 12.0854 25 12.4998 25C12.9142 25 13.3117 24.8353 13.6047 24.5423C13.8977 24.2493 14.0623 23.8519 14.0623 23.4375V21.875H15.6248C16.0392 21.875 16.4367 21.7103 16.7297 21.4173C17.0227 21.1243 17.1873 20.7269 17.1873 20.3125C17.1873 19.8981 17.0227 19.5006 16.7297 19.2076C16.4367 18.9146 16.0392 18.75 15.6248 18.75H14.0623V16.5145C15.9653 16.1493 17.6819 15.133 18.9174 13.6402C20.1528 12.1473 20.8302 10.271 20.8332 8.33329ZM7.2915 8.33329C7.2915 7.30318 7.59697 6.2962 8.16927 5.4397C8.74156 4.58319 9.555 3.91563 10.5067 3.52142C11.4584 3.12721 12.5056 3.02407 13.5159 3.22504C14.5262 3.426 15.4543 3.92205 16.1827 4.65045C16.9111 5.37884 17.4071 6.30688 17.6081 7.3172C17.8091 8.32752 17.7059 9.37474 17.3117 10.3264C16.9175 11.2781 16.2499 12.0916 15.3934 12.6639C14.5369 13.2362 13.5299 13.5416 12.4998 13.5416C11.119 13.54 9.79521 12.9907 8.81882 12.0143C7.84242 11.0379 7.29316 9.71412 7.2915 8.33329V8.33329Z" fill="white"/>
</g>
<defs>
<clipPath id="clip0_168_619">
<rect width="25" height="25" fill="white"/>
</clipPath>
</defs>
</svg>
